<svg xmlns="http://www.w3.org/2000/svg" width="280" height="64" viewBox="0 0 280 64" role="img" aria-label="De-Ebrightmarn Limited">
  <!-- The D is a transparent cut-out so the mark survives brightness-0/invert filters. -->
  <path fill-rule="evenodd" fill="#1b2058" d="M14 8h24c6.6 0 12 5.4 12 12v24c0 6.6-5.4 12-12 12H14c-6.6 0-12-5.4-12-12V20c0-6.6 5.4-12 12-12zm0 14v20h10c6.6 0 12-4.5 12-10s-5.4-10-12-10H14zm6 5h4c3.9 0 7 2.2 7 5s-3.1 5-7 5h-4V27z"/>
  <circle cx="40" cy="18" r="3" fill="#c8a96e"/>
  <text x="60" y="34" font-family="Georgia, 'Times New Roman', serif" font-size="19" font-weight="bold" fill="#1b2058" letter-spacing="0.5">De-Ebrightmarn</text>
  <text x="61" y="50" font-family="Arial, Helvetica, sans-serif" font-size="11" fill="#c8a96e" letter-spacing="4.5">L I M I T E D</text>
</svg>
